@startuml
'https://plantuml.com/class-diagram

skinparam classAttributeIconSize 0
left to right direction

class RecordTestResultUI{
}

class RecordTestResultController{
+ addTestResult(parameterCode,result,metric)
}

class Test{
- code
- NhsCode
- createdAt
+ addTestResult(parameterCode,result,metric)
+ getTestParameterFor(parameterCode)
}

class TypeOfTest{
- code
- description
- collectingMethods
- parameterCat
+ getExternalModule()
}

interface ExternalModule <<interface>> {
+ ReferenceValue getReferenceValue(Parameter param)
}

class ExternalModuleAdapter1{
+ ReferenceValue getReferenceValue(Parameter param)
}

class ExternalModuleAdapter2{
+ ReferenceValue getReferenceValue(Parameter param)
}

class BloodReferenceValues1AP{
}

class CovidReferenceValues1API{
}


RecordTestResultUI ..> RecordTestResultController
RecordTestResultController ..> Test
Test "*" --> "1" TypeOfTest : is of
TypeOfTest "*" --> "1" ExternalModule : makes use of
ExternalModuleAdapter1 ..|> ExternalModule
ExternalModuleAdapter2 ..|> ExternalModule
BloodReferenceValues1AP "1" <-- "1" ExternalModuleAdapter1
CovidReferenceValues1API "1" <-- "1" ExternalModuleAdapter2

@enduml