@startuml
'https://plantuml.com/class-diagram

skinparam classAttributeIconSize 0
left to right direction

class ConsultTestHistoryUI{
}

class ConsultTestHistoryController{
getClientOrder()
getClientTests(tin)
}

class Company{
String designation
}

class ClientStore{
getClientOrder()
}

class Client{
String name
String tinNumber
}

class TestStore{
getTestsByClient()
}

class Test{
String clientTinNum
}

ConsultTestHistoryUI ..> ConsultTestHistoryController
ConsultTestHistoryController ..> Company
Company ..> ClientStore
Company ..> TestStore
ClientStore ..> Client
TestStore ..> Test

@enduml